<?xml version="1.0" encoding="utf-8"?>
<!-- Generator: Adobe Illustrator 19.0.0, SVG Export Plug-In . SVG Version: 6.00 Build 0)  -->
<svg version="1.1" id="Warstwa_1" xmlns="http://www.w3.org/2000/svg" xmlns:xlink="http://www.w3.org/1999/xlink" x="0px" y="0px"
	 viewBox="0 0 1000 1000" style="enable-background:new 0 0 1000 1000;" xml:space="preserve">
<style type="text/css">
	.st0{fill:#28BEE0;}
	.st1{fill:#FFFFFF;}
</style>
<path id="XMLID_17_" class="st0" d="M996.2,16.5v967.1c0,6.9-5.7,12.6-12.6,12.6H16.6c-6.9,0-12.6-5.7-12.6-12.6V16.5
	C4,9.5,9.6,3.9,16.6,3.9h967.1C990.6,3.9,996.2,9.5,996.2,16.5z"/>
<g id="XMLID_5_">
	<path id="XMLID_6_" class="st1" d="M861.3,619.2c-10,20.1-24.6,35.4-43.6,46.1c-19,10.7-42.2,16-69.3,16c-42.3,0-75-12.9-98.2-38.6
		c-23.2-25.7-34.8-62.2-34.8-109.5V391.4c0-47.7,11.6-84.7,34.8-111.1c23.2-26.4,55.9-39.5,98.2-39.5c27.2,0,50.3,5.1,69.3,15.4
		c19,10.3,33.6,25.2,43.6,44.9c10,19.7,15.1,43.3,15.1,70.9l13.2-133c-4.1-7.6-8.5-14.9-13.2-21.8c-17.6-26.1-39-47-64.3-62.9
		c-32-20.1-67.2-30.1-105.7-30.1c-46,0-85.4,10.3-118.3,31.1c-32.8,20.7-57.8,50.9-75,90.7c-17.1,39.7-25.7,87.6-25.7,143.7v143.7
		c0,55.6,8.8,103.3,26.4,143c17.6,39.7,43.2,70,76.8,90.7c33.7,20.7,74.3,31,122,31c43.1,0,79.4-10.9,108.9-32.6
		c23.6-17.4,41.9-38.1,54.9-62.2c3.3-6,6.2-12.3,8.8-18.7L876.4,547C876.4,575,871.4,599.1,861.3,619.2z M876.4,135.4v650.6
		c0,49.4-13.4,87.5-40.2,114.5c-26.8,27-64.6,40.5-113.6,40.5c-25.5,0-49.9-6.3-73.1-18.8c-23.2-12.5-43.2-30.3-59.9-53.3
		l-86.6,78.4c12,18.6,26.8,34.9,44.4,48.8h362.4c25.5-19.9,46-45,61.6-75.2c11-21.4,19.3-45.1,24.8-70.8V135.4H876.4z"/>
</g>
</svg>
