<?xml version="1.0" encoding="utf-8"?>
<!-- Generator: Adobe Illustrator 19.0.0, SVG Export Plug-In . SVG Version: 6.00 Build 0)  -->
<svg version="1.1" id="Warstwa_1" xmlns="http://www.w3.org/2000/svg" xmlns:xlink="http://www.w3.org/1999/xlink" x="0px" y="0px"
	 viewBox="0 0 1000 220" style="enable-background:new 0 0 1000 220;" xml:space="preserve">
<style type="text/css">
	.st0{fill:#28BEE0;}
	.st1{fill:#FFFFFF;}
</style>
<path id="XMLID_4_" class="st0" d="M970.9,220H30c-6.6,0-12-5.4-12-12V12c0-6.6,5.4-12,12-12h940.9c6.6,0,12,5.4,12,12v196
	C982.9,214.6,977.5,220,970.9,220z"/>
<g id="XMLID_2_">
	<path id="XMLID_9_" class="st1" d="M68.8,163.5c-6-3.7-10.5-9-13.6-16.1c-3.1-7-4.7-15.5-4.7-25.4V96.6c0-9.9,1.5-18.4,4.6-25.5
		c3-7,7.5-12.4,13.3-16.1c5.8-3.7,12.8-5.5,21-5.5c6.8,0,13.1,1.8,18.7,5.3c5.7,3.6,10.2,8.6,13.7,15l-2.3,23.6
		c0-4.9-0.9-9.1-2.7-12.6s-4.4-6.1-7.7-8c-3.4-1.8-7.5-2.7-12.3-2.7c-7.5,0-13.3,2.3-17.4,7c-4.1,4.7-6.2,11.2-6.2,19.7V122
		c0,8.4,2.1,14.8,6.2,19.4s9.9,6.8,17.4,6.8c4.8,0,8.9-0.9,12.3-2.8c3.4-1.9,5.9-4.6,7.7-8.2s2.7-7.8,2.7-12.8l1.6,24.4
		c-2.3,5.7-6.1,10.5-11.3,14.3c-5.2,3.9-11.7,5.8-19.3,5.8C82,169,74.8,167.1,68.8,163.5z M79.6,213.9c0,0-3.4-1.6-10.3-4.8
		c-6.9-3.2-12.2-7.8-16-13.6l15.3-13.9c3,4.1,6.5,7.2,10.6,9.5c4.1,2.2,8.4,3.3,13,3.3c8.7,0,15.4-2.4,20.1-7.2
		c4.7-4.8,7.1-11.5,7.1-20.3V51.5h22.7v112c0,10.6-1.9,19.7-5.8,27.2c-3.9,7.6-9.5,13.3-17,17.2c-7.4,3.9-16.3,5.9-26.8,5.9
		C83.9,213.9,79.6,213.9,79.6,213.9z"/>
	<path id="XMLID_12_" class="st1" d="M181.7,159.8c-7-5.9-10.6-14.8-10.6-26.9c0-11.4,3.2-20,9.7-25.7c6.5-5.7,16.2-8.6,29.3-8.6
		h32.8l1.6,18.2h-34.3c-5.9,0-10.4,1.3-13.3,3.9c-2.9,2.6-4.4,6.7-4.4,12.1c0,5.9,1.9,10.2,5.8,13c3.9,2.8,9.8,4.2,17.7,4.2
		c8.7,0,15.1-0.9,19.4-2.8c4.3-1.9,6.4-4.7,6.4-8.7l2.3,16.2c-2,3.1-4.5,5.7-7.4,7.7c-2.9,2-6.3,3.5-10.2,4.5c-3.9,1-8.2,1.5-13,1.5
		C199.4,168.6,188.7,165.7,181.7,159.8z M241.8,93.8c0-7.6-2-13.4-6.1-17.6c-4-4.2-9.8-6.3-17.2-6.3c-4.6,0-9.1,0.7-13.5,2.1
		c-4.4,1.4-8.3,3.4-11.7,5.9l-16.6-11.3c4.4-5.3,10.1-9.4,17.3-12.3c7.2-2.9,15.1-4.4,23.9-4.4c9.6,0,17.8,1.7,24.6,5.1
		c6.8,3.4,12,8.3,15.6,14.7c3.6,6.4,5.3,14.1,5.3,23.2V167h-21.6V93.8z"/>
	<path id="XMLID_15_" class="st1" d="M297.9,51.5h22.7V167h-22.7V51.5z M366.9,97c0-8.2-2-14.5-6-18.9c-4-4.4-9.7-6.7-17-6.7
		c-7.4,0-13.1,2-17.2,5.9c-4,3.9-6.1,9.5-6.1,16.6l-2.3-22.2c3.6-7,8.2-12.3,14-16.1c5.7-3.8,12.1-5.7,19.1-5.7
		c8.1,0,15,1.8,20.7,5.5c5.7,3.7,10.1,9,13.1,16.1c3,7,4.5,15.5,4.5,25.5V167h-22.7V97z M435.8,97c0-8.2-2.1-14.5-6.3-18.9
		c-4.2-4.4-10.2-6.7-17.8-6.7c-7,0-12.5,2.2-16.3,6.5c-3.9,4.3-5.8,10.4-5.8,18.2L385,73.9c3.6-7.6,8.4-13.5,14.4-17.7
		c6-4.2,12.5-6.3,19.7-6.3c8.3,0,15.4,1.8,21.3,5.5c5.9,3.7,10.4,9,13.5,16.1c3.1,7,4.6,15.5,4.6,25.5V167h-22.7V97z"/>
	<path id="XMLID_19_" class="st1" d="M524.2,168.6c0,0-3.8-2-11.3-6c-7.6-4-13.3-9.9-17.3-17.6c-4-7.7-5.9-17.1-5.9-28.1v-13
		c0-11.4,1.9-21.2,5.7-29.2c3.8-8.1,9.4-14.2,16.6-18.5c7.3-4.2,16-6.3,26.2-6.3c9.6,0,17.9,2.4,24.7,7.2c6.8,4.8,12,11.8,15.6,20.9
		c3.6,9.1,5.4,20.1,5.4,32.8v7.6h-77.9v-18.2h56.3c-0.7-9.4-3.1-16.7-7.3-22c-4.2-5.2-9.8-7.8-16.8-7.8c-8.6,0-15.3,2.8-20,8.5
		c-4.7,5.6-7.1,13.6-7.1,23.9v14.7c0,9.6,2.5,16.9,7.6,22c5,5.1,12.2,7.7,21.5,7.7c4.6,0,9.2-0.9,13.7-2.8c4.5-1.9,8.6-4.4,12.1-7.8
		l14.9,14.9c-5.7,5.5-12.1,9.7-19.2,12.7c-7.1,3-14.3,4.5-21.5,4.5C529.6,168.6,524.2,168.6,524.2,168.6z"/>
	<path id="XMLID_21_" class="st1" d="M615.1,5.3h22.7V167h-22.7V5.3z M648,163.5c-5.3-3.4-9.3-8.3-11.8-14.6l1.6-24.1
		c0,5,0.9,9.2,2.7,12.7c1.8,3.5,4.4,6.2,7.7,8c3.4,1.9,7.5,2.8,12.3,2.8c7.5,0,13.3-2.3,17.4-6.8s6.2-11,6.2-19.3V97
		c0-8.5-2.1-15-6.2-19.7c-4.1-4.7-9.9-7-17.4-7c-4.8,0-8.9,0.9-12.3,2.7c-3.4,1.8-6,4.4-7.7,7.8c-1.8,3.4-2.7,7.6-2.7,12.4L635.4,71
		c3.5-6.7,8-12,13.7-15.6c5.6-3.7,11.9-5.5,18.8-5.5c8.2,0,15.1,1.8,21,5.5c5.8,3.7,10.2,9,13.3,16.1c3,7,4.6,15.5,4.6,25.5V122
		c0,9.8-1.6,18.2-4.7,25.1c-3.1,7-7.7,12.3-13.7,16c-6,3.7-13.2,5.5-21.6,5.5C659.6,168.6,653.3,166.9,648,163.5z"/>
	<path id="XMLID_24_" class="st1" d="M744,159.8c-7-5.9-10.6-14.8-10.6-26.9c0-11.4,3.2-20,9.7-25.7c6.5-5.7,16.2-8.6,29.3-8.6h32.8
		l1.6,18.2h-34.3c-5.9,0-10.4,1.3-13.3,3.9c-2.9,2.6-4.4,6.7-4.4,12.1c0,5.9,1.9,10.2,5.8,13c3.9,2.8,9.8,4.2,17.7,4.2
		c8.7,0,15.1-0.9,19.4-2.8c4.3-1.9,6.4-4.7,6.4-8.7l2.3,16.2c-2,3.1-4.5,5.7-7.4,7.7c-2.9,2-6.3,3.5-10.2,4.5c-3.9,1-8.2,1.5-13,1.5
		C761.7,168.6,751,165.7,744,159.8z M804.2,93.8c0-7.6-2-13.4-6.1-17.6c-4-4.2-9.8-6.3-17.2-6.3c-4.6,0-9.1,0.7-13.5,2.1
		c-4.4,1.4-8.3,3.4-11.7,5.9l-16.6-11.3c4.4-5.3,10.1-9.4,17.3-12.3c7.2-2.9,15.1-4.4,23.9-4.4c9.6,0,17.8,1.7,24.6,5.1
		c6.8,3.4,12,8.3,15.6,14.7c3.6,6.4,5.3,14.1,5.3,23.2V167h-21.6V93.8z"/>
	<path id="XMLID_27_" class="st1" d="M875.2,163.5c-6-3.7-10.5-9-13.6-16.1c-3.1-7-4.7-15.5-4.7-25.4V96.6c0-9.9,1.5-18.4,4.6-25.5
		c3-7,7.5-12.4,13.3-16.1c5.8-3.7,12.8-5.5,21-5.5c6.8,0,13.1,1.8,18.7,5.3c5.7,3.6,10.2,8.6,13.7,15l-2.3,23.6
		c0-4.9-0.9-9.1-2.7-12.6c-1.8-3.5-4.4-6.1-7.7-8c-3.4-1.8-7.5-2.7-12.3-2.7c-7.5,0-13.3,2.3-17.4,7c-4.1,4.7-6.2,11.2-6.2,19.7V122
		c0,8.4,2.1,14.8,6.2,19.4s9.9,6.8,17.4,6.8c4.8,0,8.9-0.9,12.3-2.8c3.4-1.9,5.9-4.6,7.7-8.2c1.8-3.6,2.7-7.8,2.7-12.8l1.6,24.4
		c-2.3,5.7-6.1,10.5-11.3,14.3c-5.2,3.9-11.7,5.8-19.3,5.8C888.4,169,881.1,167.1,875.2,163.5z M885.9,213.9c0,0-3.4-1.6-10.3-4.8
		c-6.9-3.2-12.2-7.8-16-13.6l15.3-13.9c3,4.1,6.5,7.2,10.6,9.5c4.1,2.2,8.4,3.3,13,3.3c8.7,0,15.4-2.4,20.1-7.2
		c4.7-4.8,7.1-11.5,7.1-20.3V51.5h22.7v112c0,10.6-1.9,19.7-5.8,27.2c-3.9,7.6-9.5,13.3-17,17.2c-7.4,3.9-16.3,5.9-26.8,5.9
		C890.2,213.9,885.9,213.9,885.9,213.9z"/>
</g>
</svg>
